# xmcd
#
# Track frame offsets: 
#        150
#        16647
#        40100
#        58912
#        78447
#        96402
#        118455
#        137310
#        161252
#        187032
#        201037
#
# Disc length: 3506 seconds
#
# Revision: 2
# Processed by: cddbd v1.5.2PL0 Copyright (c) Steve Scherf et al.
# Submitted via: ExactAudioCopyFreeDBPlugin 1.0
#
DISCID=8d0db00b
DTITLE=Beck - Midnite Vultures
DYEAR=1999
DGENRE=Folk
TTITLE0=Sexx Laws
TTITLE1=Nicotine and Gravy
TTITLE2=Mixed Bizness
TTITLE3=Get Real Paid
TTITLE4=Hollywood Freaks
TTITLE5=Peaches and Cream
TTITLE6=Broken Train
TTITLE7=Milk and Honey
TTITLE8=Beautiful Way
TTITLE9=Pressure Zone
TTITLE10=Debra
EXTD=YEAR: 1999
EXTT0=
EXTT1=
EXTT2=
EXTT3=
EXTT4=
EXTT5=
EXTT6=
EXTT7=
EXTT8=
EXTT9=
EXTT10=
PLAYORDER=
